<svg width="500" height="500" viewBox="0 0 500 500" fill="none" xmlns="http://www.w3.org/2000/svg">
<path opacity="0.8" d="M249.469 0C205.618 0.19938 162.589 11.8804 124.68 33.8753C128.824 36.4796 132.891 39.2045 136.874 42.0466H387.561C346.663 14.8126 298.637 0.189767 249.469 0ZM181.9 79.9553C192.973 91.8172 202.863 104.726 211.431 118.498H462.081C453.508 104.725 443.614 91.8165 432.535 79.9553H181.9ZM231.028 156.408C235.979 168.919 239.91 181.808 242.784 194.95H493.389C490.517 181.808 486.587 168.919 481.637 156.408H231.028ZM248.276 232.863C248.849 238.56 249.226 244.276 249.406 250C249.227 257.152 248.74 264.292 247.947 271.402H498.594C499.369 264.291 499.838 257.151 500 250C499.821 244.276 499.446 238.56 498.874 232.863H248.276ZM241.793 309.315C238.57 322.488 234.278 335.378 228.96 347.857H479.85C485.118 335.374 489.361 322.484 492.536 309.315H241.793ZM208.208 385.766C199.306 399.585 189.059 412.495 177.618 424.309H428.789C440.176 412.488 450.37 399.579 459.225 385.766H208.208ZM129.613 462.218C127.814 463.45 126.001 464.659 124.172 465.845C162.202 488.023 205.42 499.804 249.469 500C296.033 499.863 341.637 486.78 381.163 462.218H129.613Z" fill="black"/>
<path d="M91.3049 56.6541C82.5322 63.8982 74.2647 71.7306 66.5597 80.0971H115.897C108.241 71.7359 100.025 63.9036 91.3049 56.6541ZM37.0881 118.006C29.7696 129.9 23.4622 142.384 18.2319 155.328H163.948C158.75 142.388 152.476 129.903 145.193 118.006H37.0881ZM5.70963 193.238C2.8865 205.519 0.997856 217.995 0.0598251 230.56H181.944C181.031 217.997 179.167 205.521 176.37 193.238H5.70963ZM0 268.472C0.866643 281.032 2.68277 293.509 5.43286 305.796H176.527C179.276 293.509 181.093 281.032 181.959 268.472H0ZM17.8205 343.704C22.9704 356.64 29.194 369.125 36.4263 381.027H145.533C152.765 369.125 158.989 356.64 164.138 343.704H17.8205ZM65.6735 418.936C73.5336 427.571 81.9896 435.646 90.9797 443.103C99.9699 435.646 108.426 427.571 116.286 418.936H65.6735Z" fill="black"/>
</svg>
