<svg width="304" height="304" viewBox="0 0 304 304" fill="none" xmlns="http://www.w3.org/2000/svg">
<path d="M151.677 0C125.016 0.121224 98.8544 7.22332 75.8059 20.5964C78.3249 22.1798 80.7976 23.8365 83.2193 25.5645H235.637C210.771 9.00613 181.572 0.115379 151.677 0ZM110.595 48.6132C117.328 55.8253 123.341 63.6737 128.55 72.0474H280.946C275.733 63.6731 269.717 55.8249 262.981 48.6132H110.595ZM140.465 95.0966C143.475 102.703 145.865 110.54 147.613 118.531H299.981C298.234 110.54 295.845 102.703 292.836 95.0966H140.465ZM150.952 141.582C151.301 145.046 151.529 148.521 151.639 152.001C151.53 156.349 151.234 160.691 150.752 165.014H303.145C303.616 160.69 303.902 156.349 304 152.001C303.891 148.521 303.663 145.046 303.315 141.582H150.952ZM147.01 188.065C145.051 196.074 142.441 203.912 139.208 211.499H291.749C294.952 203.909 297.532 196.072 299.462 188.065H147.01ZM126.591 234.547C121.178 242.95 114.948 250.799 107.992 257.982H260.704C267.627 250.795 273.825 242.946 279.209 234.547H126.591ZM78.8047 281.031C77.7112 281.78 76.6087 282.515 75.4969 283.236C98.6191 296.72 124.896 303.883 151.677 304.003C179.988 303.919 207.716 295.965 231.748 281.031H78.8047Z" fill="white"/>
<path d="M55.5134 34.4463C50.1796 38.8507 45.1529 43.6129 40.4683 48.6998H70.4653C65.8105 43.6161 60.8151 38.854 55.5134 34.4463ZM22.5496 71.7485C18.0999 78.9801 14.265 86.5705 11.085 94.4407H99.6806C96.52 86.573 92.7056 78.9819 88.277 71.7485H22.5496ZM3.47145 117.49C1.75499 124.957 0.606696 132.542 0.0363736 140.182H110.622C110.067 132.543 108.934 124.958 107.233 117.49H3.47145ZM0 163.233C0.526919 170.869 1.63112 178.455 3.30318 185.926H107.328C109 178.455 110.104 170.869 110.631 163.233H0ZM10.8349 208.974C13.966 216.839 17.7499 224.43 22.1472 231.667H88.4838C92.8814 224.43 96.6653 216.839 99.7961 208.974H10.8349ZM39.9294 254.715C44.7084 259.966 49.8496 264.875 55.3156 269.409C60.7817 264.875 65.923 259.966 70.7019 254.715H39.9294Z" fill="white"/>
</svg>
